<svg width="274" height="64" viewBox="0 0 274 64" fill="none" xmlns="http://www.w3.org/2000/svg">
    <mask id="mask0_12_1260" style="mask-type:luminance" maskUnits="userSpaceOnUse" x="0" y="0" width="274" height="64">
        <rect width="273.659" height="64" fill="white" />
    </mask>
    <g mask="url(#mask0_12_1260)">
        <path fill-rule="evenodd" clip-rule="evenodd"
            d="M32.0001 4.94378e-06C16.7316 -0.0084276 3.584 10.7715 0.599807 25.7455C-2.38438 40.7196 5.62616 55.7162 19.7314 61.5618V31.3905L24.2703 25.5482V63.0543C26.7989 63.6827 29.3946 64.0003 32.0001 64C32.7874 64.0001 33.5645 63.9626 34.3366 63.9056V19.706L38.8755 25.5482V63.2563C41.5617 62.6674 44.1601 61.732 46.6053 60.4738V12.1183L51.1443 17.9606V57.6507C62.1933 49.4033 66.7174 35.006 62.3717 21.9211C58.026 8.83619 45.7879 0.00583332 32.0002 0.00694939L32.0001 4.94378e-06Z"
            fill="url(#paint0_linear_12_1260)" />
        <path fill-rule="evenodd" clip-rule="evenodd"
            d="M273.349 43.1025C272.494 44.6279 271.275 45.9189 269.802 46.8611C268.164 47.8585 266.272 48.3569 264.356 48.2955C262.981 48.3098 261.618 48.053 260.343 47.5396C257.923 46.5671 256.005 44.6488 255.032 42.2287C254.517 40.941 254.26 39.5643 254.276 38.1774C254.269 36.8434 254.519 35.5207 255.013 34.2814C255.958 31.8672 257.817 29.9235 260.188 28.8732C261.439 28.3207 262.794 28.0436 264.162 28.0603C265.556 28.035 266.94 28.2921 268.232 28.8161C269.37 29.2843 270.39 29.9994 271.217 30.91C272.033 31.8277 272.653 32.9024 273.039 34.0682C273.462 35.343 273.671 36.6788 273.659 38.0219V38.4873C273.635 38.6283 273.622 38.7709 273.621 38.914C273.594 39.0542 273.581 39.1968 273.582 39.3396H259.277C259.356 40.0412 259.574 40.7201 259.917 41.3368C260.225 41.8747 260.633 42.3485 261.119 42.7325C261.586 43.1012 262.118 43.377 262.689 43.5453C263.255 43.7133 263.842 43.7983 264.433 43.7973C265.454 43.8373 266.464 43.5598 267.321 43.0029C268.07 42.4879 268.687 41.8041 269.123 41.0067L273.349 43.1025ZM268.736 35.7364C268.694 35.3453 268.583 34.9648 268.407 34.6129C268.196 34.1761 267.906 33.7816 267.554 33.4487C267.148 33.0669 266.675 32.7644 266.158 32.5566C265.522 32.3099 264.844 32.1916 264.162 32.2082C263.129 32.1915 262.12 32.5189 261.293 33.1388C260.444 33.7909 259.831 34.7029 259.549 35.7355L268.736 35.7364Z"
            fill="white" />
        <path fill-rule="evenodd" clip-rule="evenodd"
            d="M241.173 56.6711C239.958 56.6902 238.747 56.5136 237.588 56.1479C236.614 55.8349 235.693 55.3775 234.855 54.7907C234.122 54.275 233.469 53.6545 232.917 52.9489C232.436 52.3423 232.057 51.6616 231.793 50.9335L236.639 48.9952C236.961 49.9508 237.588 50.7744 238.423 51.3398C240.503 52.6829 243.24 52.3795 244.974 50.6136C245.962 49.4085 246.46 47.876 246.37 46.3204V44.9998H246.06C245.454 45.8372 244.648 46.51 243.716 46.9573C242.643 47.4583 241.469 47.7039 240.285 47.6746C239.145 47.6739 238.016 47.4387 236.97 46.9838C235.899 46.5224 234.932 45.8497 234.126 45.0058C230.359 40.9912 230.359 34.7406 234.126 30.7258C234.932 29.8824 235.899 29.2101 236.97 28.7488C238.016 28.2937 239.145 28.0585 240.285 28.0579C241.469 28.0293 242.643 28.2748 243.716 28.7752C244.648 29.2228 245.454 29.8957 246.06 30.7328H246.37V28.6777H251.216V46.3163C251.238 47.7902 250.989 49.2556 250.48 50.6389C250.028 51.8554 249.328 52.9647 248.424 53.8958C247.53 54.7979 246.453 55.4985 245.265 55.9509C243.958 56.4439 242.57 56.6882 241.173 56.6711H241.173ZM241.368 43.1032C241.997 43.1016 242.621 42.9855 243.209 42.7609C243.808 42.5375 244.356 42.1942 244.818 41.752C245.298 41.2866 245.68 40.7303 245.942 40.1156C246.237 39.4106 246.383 38.6518 246.368 37.8877C246.381 37.1179 246.236 36.3539 245.942 35.6426C245.683 35.0203 245.301 34.457 244.818 33.9867C244.356 33.5446 243.808 33.2014 243.209 32.9779C242.621 32.753 241.998 32.6367 241.368 32.6346C240.745 32.6353 240.127 32.7517 239.546 32.9781C238.95 33.2067 238.409 33.5564 237.956 34.0051C237.479 34.4799 237.097 35.042 236.832 35.6608C236.264 37.0909 236.264 38.6844 236.832 40.1145C237.094 40.7294 237.476 41.2858 237.956 41.7511C238.413 42.1901 238.954 42.5331 239.546 42.7598C240.126 42.9859 240.744 43.1023 241.367 43.1031L241.368 43.1032Z"
            fill="white" />
        <path fill-rule="evenodd" clip-rule="evenodd"
            d="M223.495 45.3899H223.185C222.655 46.2537 221.906 46.9623 221.014 47.4439C219.897 48.0457 218.639 48.3401 217.37 48.2973C216.173 48.3017 214.989 48.0436 213.901 47.5414C212.805 47.0398 211.817 46.3285 210.994 45.4476C210.13 44.5189 209.453 43.4334 208.998 42.2497C208.015 39.6248 208.015 36.7334 208.997 34.1085C209.453 32.9248 210.13 31.8393 210.994 30.9106C211.817 30.03 212.805 29.3187 213.901 28.8168C214.989 28.3148 216.173 28.0568 217.37 28.061C218.639 28.0182 219.896 28.3122 221.014 28.9134C221.906 29.3954 222.655 30.1038 223.185 30.9674H223.495L223.185 28.2539V19.9238H228.265V47.6805H223.495V45.3899ZM218.416 43.607C219.073 43.6098 219.725 43.4846 220.335 43.2382C220.938 42.9961 221.485 42.6335 221.944 42.1726C222.426 41.6822 222.808 41.103 223.068 40.467C223.636 38.9961 223.636 37.3664 223.068 35.8955C222.807 35.2596 222.425 34.6804 221.944 34.1899C221.485 33.7295 220.938 33.3669 220.335 33.1243C219.725 32.8783 219.073 32.7531 218.416 32.7555C217.756 32.7529 217.103 32.8849 216.497 33.1434C215.895 33.3978 215.349 33.7662 214.888 34.2285C214.406 34.7189 214.024 35.2982 213.763 35.9341C213.194 37.3793 213.194 38.9862 213.763 40.4314C214.024 41.0674 214.406 41.6467 214.888 42.137C215.349 42.5994 215.895 42.9678 216.497 43.2219C217.104 43.4796 217.757 43.6107 218.417 43.6071L218.416 43.607Z"
            fill="white" />
        <path fill-rule="evenodd" clip-rule="evenodd"
            d="M202.033 26.1235C201.169 26.1247 200.339 25.7836 199.726 25.1746C199.43 24.8798 199.193 24.5312 199.028 24.1476C198.691 23.3278 198.691 22.4084 199.028 21.5886C199.193 21.2051 199.43 20.8565 199.726 20.5616C200.339 19.9526 201.168 19.6111 202.033 19.6117C202.905 19.5987 203.745 19.9417 204.358 20.5616C204.978 21.169 205.327 22.0003 205.327 22.8681C205.327 23.7359 204.978 24.5673 204.358 25.1747C203.744 25.7941 202.905 26.1367 202.033 26.1235H202.033ZM199.513 47.6783V28.6815H204.593V47.6783H199.513Z"
            fill="white" />
        <path fill-rule="evenodd" clip-rule="evenodd"
            d="M183.293 28.6817H188.06V31.3178H188.37C188.609 30.8436 188.924 30.4113 189.301 30.0378C189.691 29.6473 190.127 29.3062 190.599 29.0219C191.087 28.7294 191.608 28.4952 192.15 28.324C192.683 28.1505 193.238 28.0608 193.798 28.0579C194.381 28.046 194.963 28.1185 195.525 28.2732C195.958 28.3959 196.369 28.5848 196.744 28.8331L195.387 33.3689C195.06 33.2079 194.715 33.0846 194.36 33.0011C193.908 32.9023 193.446 32.8566 192.983 32.8649C192.328 32.8551 191.678 32.994 191.084 33.2712C190.519 33.5407 190.022 33.9338 189.63 34.4212C189.216 34.9375 188.901 35.5253 188.699 36.1554C188.474 36.8539 188.363 37.5842 188.37 38.3182V47.6714H183.291L183.293 28.6817Z"
            fill="white" />
        <path fill-rule="evenodd" clip-rule="evenodd"
            d="M159.957 19.9202H170.812C171.947 19.9113 173.075 20.1014 174.145 20.482C175.13 20.8291 176.044 21.3546 176.839 22.0323C177.587 22.6738 178.2 23.458 178.642 24.3391C179.649 26.4391 179.495 28.911 178.236 30.8701C177.556 31.8383 176.643 32.6186 175.58 33.1387L175.58 33.4435C176.93 33.9107 178.119 34.7512 179.011 35.8674C179.901 37.0408 180.36 38.4853 180.309 39.9574C180.328 41.0652 180.082 42.1615 179.592 43.1552C179.118 44.0926 178.451 44.9185 177.634 45.5781C176.775 46.2674 175.796 46.7929 174.746 47.1282C173.6 47.4975 172.403 47.6806 171.199 47.6708H159.957V19.9202ZM170.421 31.2391C171.453 31.3059 172.468 30.9494 173.231 30.2515C173.871 29.6396 174.228 28.7908 174.22 27.906C174.232 27.03 173.881 26.188 173.251 25.5796C172.529 24.9041 171.563 24.5535 170.576 24.6095H165.192V31.2391H170.421ZM171.002 42.8688C172.1 42.9443 173.184 42.5899 174.026 41.8802C174.724 41.2233 175.105 40.2982 175.073 39.3406C175.099 38.3693 174.711 37.4328 174.007 36.7634C173.129 36.0197 171.994 35.6505 170.847 35.7353H165.187V42.8688H171.002Z"
            fill="white" />
        <path fill-rule="evenodd" clip-rule="evenodd"
            d="M136.747 19.9209H141.826V27.7137L141.517 31.1677H141.826C142.4 30.2332 143.209 29.4648 144.171 28.9389C145.218 28.3507 146.402 28.05 147.603 28.0672C150.058 28.0672 151.873 28.7906 153.05 30.2371C154.309 31.9493 154.933 34.0468 154.813 36.1689L154.813 47.6817H149.734V36.7885C149.811 35.706 149.479 34.6341 148.803 33.7845C148.13 33.0776 147.18 32.7021 146.206 32.7575C145.558 32.7452 144.917 32.8987 144.345 33.2034C143.8 33.5013 143.33 33.9179 142.968 34.4224C142.58 34.9681 142.291 35.5783 142.116 36.2246C141.918 36.9378 141.821 37.6749 141.825 38.4148V47.6796H136.746L136.747 19.9209Z"
            fill="white" />
        <path fill-rule="evenodd" clip-rule="evenodd"
            d="M122.704 56.6713C121.489 56.6905 120.278 56.5139 119.118 56.1481C118.145 55.8351 117.223 55.3776 116.386 54.7908C115.653 54.2751 115 53.6545 114.447 52.9491C113.966 52.3422 113.587 51.6616 113.323 50.9336L118.169 48.9953C118.491 49.9509 119.117 50.7746 119.952 51.3399C122.032 52.6826 124.769 52.3792 126.504 50.6136C127.491 49.4083 127.988 47.876 127.899 46.3207V44.9999H127.594C126.987 45.8373 126.181 46.5102 125.248 46.9575C124.175 47.4586 123.001 47.7041 121.818 47.6747C120.677 47.6739 119.549 47.4388 118.503 46.9838C117.431 46.5225 116.464 45.8497 115.658 45.006C111.891 40.9912 111.891 34.7406 115.658 30.7258C116.464 29.8827 117.431 29.2103 118.503 28.7489C119.549 28.2938 120.677 28.0587 121.817 28.0579C123.001 28.0292 124.175 28.2747 125.248 28.7753C126.18 29.2231 126.987 29.8959 127.594 30.7329H127.899V28.6778H132.744V46.3165C132.766 47.7903 132.517 49.2557 132.008 50.639C131.556 51.8556 130.856 52.9647 129.953 53.896C129.058 54.7981 127.981 55.4988 126.793 55.951C125.487 56.4437 124.1 56.688 122.704 56.6713ZM122.898 43.1033C123.528 43.1017 124.152 42.9856 124.74 42.7609C125.339 42.5374 125.886 42.1941 126.348 41.7521C126.828 41.2869 127.211 40.7304 127.473 40.1157C127.769 39.411 127.914 38.6521 127.9 37.8878C127.913 37.1181 127.767 36.3539 127.473 35.6428C127.214 35.0205 126.831 34.4571 126.348 33.987C125.886 33.545 125.339 33.2018 124.74 32.9781C124.152 32.7531 123.528 32.6368 122.898 32.6348C122.275 32.6354 121.657 32.7519 121.076 32.9781C120.481 33.2068 119.939 33.5565 119.486 34.0051C119.009 34.4799 118.628 35.0421 118.363 35.6609C117.794 37.0911 117.794 38.6846 118.363 40.1146C118.624 40.7296 119.006 41.286 119.486 41.7513C119.943 42.1903 120.484 42.5331 121.076 42.76C121.657 42.9861 122.275 43.1026 122.898 43.1032L122.898 43.1033Z"
            fill="white" />
        <path fill-rule="evenodd" clip-rule="evenodd"
            d="M106.453 26.1232C105.589 26.1242 104.76 25.783 104.147 25.1743C103.851 24.8797 103.614 24.5312 103.449 24.1475C103.113 23.3275 103.113 22.4084 103.449 21.5883C103.614 21.2046 103.851 20.8561 104.147 20.5613C105.431 19.2947 107.495 19.2947 108.779 20.5613C109.399 21.1687 109.748 22 109.748 22.8678C109.748 23.7356 109.399 24.567 108.779 25.1744C108.165 25.7941 107.325 26.1367 106.453 26.1232ZM103.934 47.678V28.6812H109.013V47.678H103.934Z"
            fill="white" />
        <path fill-rule="evenodd" clip-rule="evenodd"
            d="M76.999 19.9209H82.2328V31.0081H93.9011V19.9209H99.1339V47.6776H93.9011V35.9706H82.2328V47.6776H76.9991L76.999 19.9209Z"
            fill="white" />
    </g>
    <defs>
        <linearGradient id="paint0_linear_12_1260" x1="-24.9584" y1="-14.08" x2="-23.5509" y2="98.624"
            gradientUnits="userSpaceOnUse">
            <stop stop-color="white" />
            <stop offset="0.6" stop-color="white" stop-opacity="0.968627" />
            <stop offset="1" stop-color="white" stop-opacity="0.101961" />
        </linearGradient>
    </defs>
</svg>